<?xml version="1.0" encoding="UTF-8" standalone="no"?>
<!-- Created with Inkscape (http://www.inkscape.org/) -->

<svg
   width="120"
   height="120"
   viewBox="0 0 120 120"
   version="1.1"
   id="svg5"
   inkscape:version="1.1.1 (3bf5ae0d25, 2021-09-20)"
   sodipodi:docname="logo.svg"
   xmlns:inkscape="http://www.inkscape.org/namespaces/inkscape"
   xmlns:sodipodi="http://sodipodi.sourceforge.net/DTD/sodipodi-0.dtd"
   xmlns="http://www.w3.org/2000/svg"
   xmlns:svg="http://www.w3.org/2000/svg">
  <sodipodi:namedview
     id="namedview7"
     pagecolor="#ffffff"
     bordercolor="#666666"
     borderopacity="1.0"
     inkscape:pageshadow="2"
     inkscape:pageopacity="0.0"
     inkscape:pagecheckerboard="0"
     inkscape:document-units="px"
     showgrid="true"
     inkscape:zoom="3.4333333"
     inkscape:cx="-49.514563"
     inkscape:cy="52.572816"
     inkscape:window-width="2560"
     inkscape:window-height="1009"
     inkscape:window-x="-8"
     inkscape:window-y="-8"
     inkscape:window-maximized="1"
     inkscape:current-layer="layer1">
    <inkscape:grid
       type="xygrid"
       id="grid9" />
  </sodipodi:namedview>
  <defs
     id="defs2" />
  <g
     inkscape:label="Layer 1"
     inkscape:groupmode="layer"
     id="layer1">
    <path
       style="fill:none;stroke:#000000;stroke-width:0.647059px;stroke-linecap:butt;stroke-linejoin:miter;stroke-opacity:1"
       d="M 47.647059,27.058824 60.588235,43.235295 73.529412,27.058824"
       id="path342" />
    <path
       style="fill:none;stroke:#000000;stroke-width:0.647059px;stroke-linecap:butt;stroke-linejoin:miter;stroke-opacity:1"
       d="M 67.058823,7.647059 V 20.588236"
       id="path1322" />
    <path
       style="fill:none;stroke:#000000;stroke-width:0.647059px;stroke-linecap:butt;stroke-linejoin:miter;stroke-opacity:1"
       d="M 54.117647,20.588236 V 14.117647 H 44.411765 L 54.117647,4.4117651 H 67.058823 V 7.647059"
       id="path1328" />
    <path
       style="fill:none;stroke:#000000;stroke-width:0.647059px;stroke-linecap:butt;stroke-linejoin:miter;stroke-opacity:1"
       d="m 47.647059,27.058824 6.470588,-6.470588"
       id="path1690" />
    <path
       style="fill:none;stroke:#000000;stroke-width:0.647059px;stroke-linecap:butt;stroke-linejoin:miter;stroke-opacity:1"
       d="m 67.058823,20.588236 6.470589,6.470588"
       id="path1692" />
    <path
       style="fill:none;stroke:#000000;stroke-width:0.647059px;stroke-linecap:butt;stroke-linejoin:miter;stroke-opacity:1"
       d="m 44.411765,56.176471 v -3.235294 l -3.235295,-3.235294 -3.235294,3.235294 -3.235294,3.235294 h 3.235294 l 3.235294,-3.235294 3.235295,3.235294"
       id="path1753" />
    <path
       style="fill:none;stroke:#000000;stroke-width:0.647059px;stroke-linecap:butt;stroke-linejoin:miter;stroke-opacity:1"
       d="m 67.058823,1.176471 h 3.235294 v 3.2352941"
       id="path1755" />
    <path
       style="fill:none;stroke:#000000;stroke-width:0.647059px;stroke-linecap:butt;stroke-linejoin:miter;stroke-opacity:1"
       d="M 76.764706,56.176471 V 52.941177 L 80,49.705883 86.470588,56.176471 H 83.235294 L 80,52.941177 76.764706,56.176471"
       id="path1876" />
    <path
       style="fill:none;stroke:#000000;stroke-width:0.647059px;stroke-linecap:butt;stroke-linejoin:miter;stroke-opacity:1"
       d="m 76.764706,52.941177 -3.235294,3.235294 h 3.235294"
       id="path1878" />
    <path
       style="fill:none;stroke:#000000;stroke-width:0.647059px;stroke-linecap:butt;stroke-linejoin:miter;stroke-opacity:1"
       d="m 44.411765,56.176471 h 3.235294 l -3.235294,-3.235294"
       id="path1880" />
    <path
       style="fill:none;stroke:#000000;stroke-width:0.647059px;stroke-linecap:butt;stroke-linejoin:miter;stroke-opacity:1"
       d="M 44.411765,30.294118 37.941176,36.764706 2.352941,4.4117651 h 19.411765 z"
       id="path3117" />
    <path
       style="fill:none;stroke:#000000;stroke-width:0.647059px;stroke-linecap:butt;stroke-linejoin:miter;stroke-opacity:1"
       d="M 76.764706,30.294118 83.235294,36.764706 118.82353,4.4117651 H 99.411762 L 76.764706,30.294118"
       id="path3119"
       sodipodi:nodetypes="ccccc" />
    <path
       style="fill:none;stroke:#000000;stroke-width:0.647059px;stroke-linecap:butt;stroke-linejoin:miter;stroke-opacity:1"
       d="M 73.529412,33.529412 60.588235,49.705883 47.647059,33.529412 41.17647,40 60.588235,65.882353 80,40 Z"
       id="path3121" />
    <path
       style="fill:none;stroke:#000000;stroke-width:0.647059px;stroke-linecap:butt;stroke-linejoin:miter;stroke-opacity:1"
       d="M 47.647059,62.647059 H 73.529412 L 60.588235,72.352942 47.647059,62.647059"
       id="path3839" />
    <path
       style="fill:#1a1a1a;stroke-width:0.291262"
       d="M 80.404624,33.074588 77.535771,30.19493 88.651082,17.500378 99.766393,4.8058252 h 8.943667 c 8.72407,0 8.92956,0.013271 8.36923,0.5405017 -0.87383,0.8222076 -32.556394,29.5325881 -33.223247,30.1065251 -0.565123,0.486379 -0.66847,0.415168 -3.451419,-2.378264 z"
       id="path3995" />
    <path
       style="fill:#1a1a1a;stroke-width:0.291262"
       d="m 54.408666,34.70227 -6.146757,-7.682671 3.174871,-3.165026 3.17487,-3.165027 v -3.572928 -3.572929 h -4.438105 -4.438106 l 4.361648,-4.3689317 4.361649,-4.3689321 h 6.047331 6.047331 v 7.9418608 7.94186 l 3.176969,3.167117 3.176968,3.167118 -5.838343,7.313351 c -3.211089,4.022345 -5.99027,7.478604 -6.175957,7.68058 -0.263662,0.286788 -1.683999,-1.315585 -6.484369,-7.315442 z"
       id="path4034" />
    <path
       style="fill:#1a1a1a;stroke-width:0.291262"
       d="M 20.812017,20.501775 C 11.447932,11.993771 3.7317961,4.9816356 3.6650485,4.9192512 3.598301,4.8568669 7.5958739,4.814582 12.548544,4.8252847 l 9.004854,0.019459 11.115216,12.7232583 11.115215,12.723259 -2.80878,2.839806 c -1.544829,1.561893 -2.882724,2.839807 -2.973102,2.839807 -0.09038,0 -7.825845,-6.961095 -17.18993,-15.469099 z"
       id="path4073" />
    <path
       style="fill:#1a1a1a;stroke-width:0.291262"
       d="m 38.516235,53.089642 2.687057,-2.687056 1.31583,1.291389 c 0.980883,0.962663 1.315829,1.513813 1.315829,2.165175 v 0.873787 l -1.312585,-1.288205 -1.312584,-1.288205 -1.82632,1.810086 c -1.414587,1.402013 -2.021099,1.810086 -2.690301,1.810086 -0.826061,0 -0.746043,-0.117939 1.823074,-2.687057 z"
       id="path4112" />
    <path
       style="fill:#1a1a1a;stroke-width:0.291262"
       d=""
       id="path4151" />
    <path
       style="fill:#1a1a1a;stroke-width:0.291262"
       d=""
       id="path4190" />
    <path
       style="fill:#1a1a1a;stroke-width:0.291262"
       d="m 81.773605,53.963897 -1.812802,-1.812803 -1.315353,1.290921 -1.315353,1.290922 V 53.85915 c 0,-0.651362 0.334947,-1.202512 1.31583,-2.165175 l 1.315829,-1.291389 2.687057,2.687056 c 2.583959,2.58396 2.653495,2.687057 1.812326,2.687057 -0.684264,0 -1.269458,-0.394727 -2.687534,-1.812802 z"
       id="path4229" />
    <path
       style="fill:#1a1a1a;stroke-width:0.145631"
       d="M 50.460382,51.67603 C 46.095522,45.856342 42.347477,40.855356 42.131393,40.562729 l -0.392878,-0.53205 2.941422,-2.935895 2.941422,-2.935894 6.466288,8.088572 c 6.181402,7.732213 6.477324,8.076891 6.716812,7.823467 0.137789,-0.145807 3.020371,-3.738405 6.405737,-7.98355 3.385367,-4.245146 6.197263,-7.766258 6.248659,-7.824694 0.05139,-0.05844 1.420608,1.222101 3.042696,2.845638 l 2.94925,2.951885 -8.323364,11.098537 -8.323366,11.098537 h -2.203788 -2.20379 z"
       id="path4268" />
    <path
       style="fill:#1a1a1a;stroke-width:0.145631"
       d="m 54.697119,67.407517 -5.885405,-4.42208 h 4.533832 4.533832 l 1.319651,1.747573 c 0.725808,0.961165 1.348381,1.747573 1.383495,1.747573 0.03511,0 0.657688,-0.786408 1.383495,-1.747573 l 1.319651,-1.747573 h 4.539204 c 2.571415,0 4.479228,0.05474 4.400854,0.12627 -0.107361,0.09799 -10.864312,8.156024 -11.497573,8.612838 -0.0801,0.05778 -2.794063,-1.884883 -6.031036,-4.317028 z"
       id="path4307" />
    <path
       style="fill:#800080;stroke-width:0.0728155"
       d="m 44.745146,54.812905 v -1.000202 l 0.983009,0.980986 c 0.540656,0.539543 0.98301,0.989634 0.98301,1.000202 0,0.01057 -0.442354,0.01922 -0.98301,0.01922 h -0.983009 z"
       id="path4420" />
    <path
       style="fill:#800080;stroke-width:0.0728155"
       d="m 59.759298,64.161996 -0.823226,-1.103744 1.616708,-0.01963 c 0.889189,-0.01079 1.631114,-0.0052 1.648722,0.01239 0.02482,0.02482 -1.373263,1.948539 -1.574744,2.166806 -0.02433,0.02635 -0.414685,-0.448766 -0.86746,-1.055826 z"
       id="path4496" />
    <path
       style="fill:#800080;stroke-width:0.0728155"
       d="m 75.400485,54.830097 c 0.539543,-0.540655 0.989634,-0.98301 1.000202,-0.98301 0.01057,0 0.01922,0.442355 0.01922,0.98301 v 0.98301 h -1.000202 -1.000202 z"
       id="path4535" />
    <g
       aria-label="HAWK"
       id="text20210"
       style="font-size:36.7951px;line-height:1.25;stroke-width:0.919878">
      <path
         d="M 26.50585,103.64078 H 22.948512 V 90.543303 H 9.5995076 V 103.64078 H 6.0421687 V 76.888871 H 9.5995076 V 87.381224 H 22.948512 V 76.888871 h 3.557338 l 0,9.907245 z"
         id="path25894"
         sodipodi:nodetypes="cccccccccccccc" />
      <path
         d="M 54.784898,103.64078 H 50.993996 L 48.370908,96.184739 H 36.800573 l -2.623088,7.456041 h -3.611238 l 9.737766,-26.751909 h 4.743119 z M 47.27496,93.130458 42.585741,79.99705 37.878555,93.130458 Z"
         id="path25896" />
      <path
         d="m 89.082675,76.888871 -6.95298,26.751909 H 78.123197 L 72.499727,81.434359 67.002021,103.64078 H 63.085355 L 56.00661,76.888871 h 3.647171 l 5.62347,22.242351 5.533638,-22.242351 h 3.611238 l 5.587537,22.457947 5.587538,-22.457947 z"
         id="path25898" />
      <path
         d="m 115.83458,103.64078 h -4.61735 l -10.58219,-11.911698 -2.659018,2.838685 v 9.073013 H 94.418683 V 76.888871 h 3.557339 v 13.95986 L 110.9657,76.888871 h 4.31192 L 103.33,89.465321 Z"
         id="path25900" />
    </g>
  </g>
</svg>
