<?xml version="1.0" encoding="UTF-8" standalone="no"?>
<!-- Created with Inkscape (http://www.inkscape.org/) -->

<svg
   width="512"
   height="512"
   viewBox="0 0 512 512"
   version="1.1"
   id="svg5"
   inkscape:version="1.1.1 (3bf5ae0d25, 2021-09-20)"
   sodipodi:docname="logo.svg"
   xmlns:inkscape="http://www.inkscape.org/namespaces/inkscape"
   xmlns:sodipodi="http://sodipodi.sourceforge.net/DTD/sodipodi-0.dtd"
   xmlns="http://www.w3.org/2000/svg"
   xmlns:svg="http://www.w3.org/2000/svg">
  <sodipodi:namedview
     id="namedview7"
     pagecolor="#ffffff"
     bordercolor="#666666"
     borderopacity="1.0"
     inkscape:pageshadow="2"
     inkscape:pageopacity="0.0"
     inkscape:pagecheckerboard="0"
     inkscape:document-units="px"
     showgrid="true"
     inkscape:zoom="0.8046875"
     inkscape:cx="106.87379"
     inkscape:cy="184.54369"
     inkscape:window-width="2560"
     inkscape:window-height="1009"
     inkscape:window-x="-8"
     inkscape:window-y="-8"
     inkscape:window-maximized="1"
     inkscape:current-layer="layer1">
    <inkscape:grid
       type="xygrid"
       id="grid158" />
  </sodipodi:namedview>
  <defs
     id="defs2" />
  <g
     inkscape:label="Layer 1"
     inkscape:groupmode="layer"
     id="layer1">
    <path
       style="fill:none;stroke:#000000;stroke-width:3.04369px;stroke-linecap:butt;stroke-linejoin:miter;stroke-opacity:1"
       d="m 201.35717,162.46173 53.40009,86.74222 53.40013,-86.74222"
       id="path342" />
    <path
       style="fill:none;stroke:#000000;stroke-width:3.04369px;stroke-linecap:butt;stroke-linejoin:miter;stroke-opacity:1"
       d="m 281.45733,58.37107 v 69.39379"
       id="path1322" />
    <path
       style="fill:none;stroke:#000000;stroke-width:3.04369px;stroke-linecap:butt;stroke-linejoin:miter;stroke-opacity:1"
       d="M 228.05722,127.76486 V 93.06797 h -40.05009 l 40.05009,-52.045351 h 53.40011 V 58.37107"
       id="path1328" />
    <path
       style="fill:none;stroke:#000000;stroke-width:3.04369px;stroke-linecap:butt;stroke-linejoin:miter;stroke-opacity:1"
       d="m 201.35717,162.46173 26.70005,-34.69687"
       id="path1690" />
    <path
       style="fill:none;stroke:#000000;stroke-width:3.04369px;stroke-linecap:butt;stroke-linejoin:miter;stroke-opacity:1"
       d="m 281.45733,127.76486 26.70006,34.69687"
       id="path1692" />
    <path
       style="fill:none;stroke:#000000;stroke-width:3.04369px;stroke-linecap:butt;stroke-linejoin:miter;stroke-opacity:1"
       d="m 188.00713,318.59774 v -17.34843 l -13.35002,-17.34844 -13.35002,17.34844 -13.35002,17.34843 h 13.35002 l 13.35002,-17.34843 13.35002,17.34843"
       id="path1753" />
    <path
       style="fill:none;stroke:#000000;stroke-width:3.04369px;stroke-linecap:butt;stroke-linejoin:miter;stroke-opacity:1"
       d="m 281.45733,23.674182 h 13.35004 v 17.348437"
       id="path1755" />
    <path
       style="fill:none;stroke:#000000;stroke-width:3.04369px;stroke-linecap:butt;stroke-linejoin:miter;stroke-opacity:1"
       d="m 321.50741,318.59774 v -17.34843 l 13.35003,-17.34844 26.70004,34.69687 h -13.35002 l -13.35002,-17.34843 -13.35003,17.34843"
       id="path1876" />
    <path
       style="fill:none;stroke:#000000;stroke-width:3.04369px;stroke-linecap:butt;stroke-linejoin:miter;stroke-opacity:1"
       d="m 321.50741,301.24931 -13.35002,17.34843 h 13.35002"
       id="path1878" />
    <path
       style="fill:none;stroke:#000000;stroke-width:3.04369px;stroke-linecap:butt;stroke-linejoin:miter;stroke-opacity:1"
       d="m 188.00713,318.59774 h 13.35004 l -13.35004,-17.34843"
       id="path1880" />
    <path
       style="fill:none;stroke:#000000;stroke-width:3.04369px;stroke-linecap:butt;stroke-linejoin:miter;stroke-opacity:1"
       d="M 188.00713,179.81019 161.30709,214.50708 14.4568,41.022619 h 80.100162 z"
       id="path3117" />
    <path
       style="fill:none;stroke:#000000;stroke-width:3.04369px;stroke-linecap:butt;stroke-linejoin:miter;stroke-opacity:1"
       d="m 321.50741,179.81019 26.70005,34.69689 146.8503,-173.484461 H 414.95759 L 321.50741,179.81019"
       id="path3119"
       sodipodi:nodetypes="ccccc" />
    <path
       style="fill:none;stroke:#000000;stroke-width:3.04369px;stroke-linecap:butt;stroke-linejoin:miter;stroke-opacity:1"
       d="m 308.15739,197.15863 -53.40013,86.74224 -53.40009,-86.74224 -26.70006,34.69689 80.10015,138.78755 80.10018,-138.78755 z"
       id="path3121" />
    <path
       style="fill:none;stroke:#000000;stroke-width:3.04369px;stroke-linecap:butt;stroke-linejoin:miter;stroke-opacity:1"
       d="m 201.35717,353.29463 h 106.80022 l -53.40013,52.04534 -53.40009,-52.04534"
       id="path3839" />
    <path
       style="fill:#1a1a1a;stroke-width:1.37006"
       d="m 336.52707,194.71976 -11.83796,-15.44145 45.8659,-68.0713 45.86591,-68.071339 h 36.90489 c 35.99875,0 36.8467,0.07125 34.53455,2.898312 -3.60573,4.408884 -134.33977,158.361017 -137.09145,161.438607 -2.33191,2.6081 -2.75838,2.22624 -14.24184,-12.75283 z"
       id="path3995" />
    <path
       style="fill:#1a1a1a;stroke-width:1.37006"
       d="m 229.25808,203.44779 -25.3638,-41.19639 13.10069,-16.97165 13.1007,-16.97163 V 109.14919 89.990267 H 211.78238 193.46912 L 211.4669,66.562969 229.46468,43.135671 h 24.95353 24.95354 v 42.586222 42.586227 l 13.10935,16.98283 13.10936,16.98287 -24.09116,39.21601 c -13.25016,21.56879 -24.71809,40.10211 -25.48432,41.18514 -1.08796,1.53783 -6.9488,-7.05447 -26.7569,-39.22718 z"
       id="path4034" />
    <path
       style="fill:#1a1a1a;stroke-width:1.37006"
       d="M 90.62581,127.30123 C 51.986116,81.679207 20.146461,44.078418 19.871045,43.743885 19.595628,43.409392 36.091092,43.182644 56.527642,43.240013 l 37.157383,0.104355 45.865515,68.225262 45.86551,68.22525 -11.59007,15.22772 c -6.37456,8.37528 -11.89518,15.22777 -12.26812,15.22777 -0.37295,0 -32.29234,-37.32712 -70.93205,-82.94912 z"
       id="path4073" />
    <path
       style="fill:#1a1a1a;stroke-width:1.37006"
       d="m 163.68,302.0454 11.08778,-14.40865 5.42962,6.92474 c 4.0475,5.16203 5.4296,8.11746 5.4296,11.61021 v 4.68547 l -5.41623,-6.90769 -5.41619,-6.90766 -7.53608,9.70611 c -5.83711,7.51795 -8.3398,9.70613 -11.10118,9.70613 -3.40865,0 -3.07844,-0.63241 7.52268,-14.40866 z"
       id="path4112" />
    <path
       style="fill:#1a1a1a;stroke-width:1.37006"
       d="m 342.17598,306.73337 -7.48029,-9.7207 -5.42764,6.92226 -5.42762,6.92224 v -4.68547 c 0,-3.49275 1.38212,-6.44818 5.4296,-11.61021 l 5.4296,-6.92474 11.08779,14.40865 c 10.66238,13.85585 10.94932,14.40866 7.47834,14.40866 -2.82355,0 -5.23827,-2.11661 -11.08978,-9.72069 z"
       id="path4229" />
    <path
       style="fill:#1a1a1a;stroke-width:0.685034"
       d="M 212.96599,294.46528 C 194.95497,263.25868 179.48912,236.44214 178.59748,234.873 l -1.62115,-2.85298 12.1374,-15.74298 12.13739,-15.74299 26.68233,43.37291 c 25.50675,41.46204 26.72784,43.31028 27.71604,41.95137 0.56857,-0.78187 12.46318,-20.04627 26.43247,-42.80977 13.96928,-22.76351 25.57221,-41.64458 25.78428,-41.95793 0.2121,-0.31338 5.86194,6.5532 12.55529,15.25901 l 12.1697,15.82872 -34.34528,59.5131 -34.3453,59.51308 h -9.09366 -9.09367 z"
       id="path4268" />
    <path
       style="fill:#1a1a1a;stroke-width:0.685034"
       d="M 230.44833,378.82139 206.16296,355.1091 h 18.70829 18.70826 l 5.44538,9.37092 c 2.99495,5.154 5.56392,9.37092 5.70884,9.37092 0.14476,0 2.71385,-4.21692 5.70881,-9.37092 l 5.44536,-9.37092 h 18.73043 c 10.61062,0 18.48298,0.29352 18.15958,0.67708 -0.44303,0.52545 -44.83021,43.73462 -47.44328,46.18418 -0.33052,0.30982 -11.52932,-10.10722 -24.8863,-23.14897 z"
       id="path4307" />
    <path
       style="fill:#800080;stroke-width:0.342516"
       d="m 189.38279,311.28596 v -5.36332 l 4.05628,5.26028 c 2.23093,2.89317 4.05625,5.30668 4.05625,5.36334 0,0.0567 -1.82532,0.10316 -4.05625,0.10316 h -4.05628 z"
       id="path4420" />
    <path
       style="fill:#800080;stroke-width:0.342516"
       d="m 251.33676,361.41809 -3.39693,-5.91856 6.67115,-0.10528 c 3.66914,-0.058 6.73058,-0.0279 6.80323,0.0663 0.10237,0.13297 -5.66659,10.44855 -6.49797,11.61894 -0.10051,0.1414 -1.71116,-2.40638 -3.57948,-5.66158 z"
       id="path4496" />
    <path
       style="fill:#800080;stroke-width:0.342516"
       d="m 315.87813,311.37816 c 2.22636,-2.89912 4.08359,-5.27114 4.12721,-5.27114 0.0436,0 0.0793,2.37202 0.0793,5.27114 v 5.27114 h -4.12719 -4.12722 z"
       id="path4535" />
    <path
       style="fill:none;stroke:#000000;stroke-width:2.53133px;stroke-linecap:butt;stroke-linejoin:miter;stroke-opacity:1"
       d="m 134.36974,412.89016 v 37.9701 25.31339 h 12.65668 v -25.31339 h 12.6567 v 25.31339 h 12.65671 v -25.31339 -37.9701 h -12.65671 v 25.31339 h -12.6567 v -25.31339 z"
       id="path274"
       sodipodi:nodetypes="ccccccccccccccc" />
    <path
       style="fill:none;stroke:#000000;stroke-width:2.53133px;stroke-linecap:butt;stroke-linejoin:miter;stroke-opacity:1"
       d="m 172.33983,476.17365 h 12.6567 v -25.31339 h 12.65669 v 25.31339 h 12.6567 v -63.28349 h -37.97009 v 25.31339 37.9701"
       id="path2533"
       sodipodi:nodetypes="cccccccccc" />
    <path
       style="fill:none;stroke:#000000;stroke-width:2.53133px;stroke-linecap:butt;stroke-linejoin:miter;stroke-opacity:1"
       d="m 184.99653,438.20355 h 12.65669 v -12.65671 h -12.65669 z"
       id="path2535"
       sodipodi:nodetypes="ccccc" />
    <path
       style="fill:none;stroke:#000000;stroke-width:2.53133px;stroke-linecap:butt;stroke-linejoin:miter;stroke-opacity:1"
       d="m 210.30992,412.89016 v 63.28349 h 12.6567 l 12.65671,-25.31339 12.6567,25.31339 h 12.65669 v -63.28349 h -12.65669 v 37.9701 l -12.6567,-25.31342 -12.65671,25.31342 v -37.9701 z"
       id="path6487"
       sodipodi:nodetypes="ccccccccccccc" />
    <path
       style="fill:none;stroke:#000000;stroke-width:2.53133px;stroke-linecap:butt;stroke-linejoin:miter;stroke-opacity:1"
       d="m 260.93672,412.89016 h 12.65669 v 25.31339 l 12.65671,-25.31339 h 12.65671 l -12.65671,37.9701 12.65671,25.31339 h -12.65671 l -12.65671,-25.31339 v 25.31339 h -12.65669 z"
       id="path9988"
       sodipodi:nodetypes="cccccccccccc" />
    <path
       style="fill:none;stroke:#000000;stroke-width:2.53133px;stroke-linecap:butt;stroke-linejoin:miter;stroke-opacity:1"
       d="m 298.90683,412.89016 v 63.28349 h 37.97008 v -12.65668 h -25.31337 v -12.65671 h 12.65668 v -12.65671 h -12.65668 v -12.65671 h 25.31337 v -12.65668 z"
       id="path10198" />
    <path
       style="fill:none;stroke:#000000;stroke-width:2.53133px;stroke-linecap:butt;stroke-linejoin:miter;stroke-opacity:1"
       d="m 336.87691,412.89016 v 63.28349 h 12.65671 v -25.31339 l 12.65671,25.31339 h 12.65671 l -12.65671,-25.31339 12.65671,-12.65671 v -25.31339 h -37.97013"
       id="path10204"
       sodipodi:nodetypes="cccccccccc" />
    <path
       style="fill:none;stroke:#000000;stroke-width:2.53133px;stroke-linecap:butt;stroke-linejoin:miter;stroke-opacity:1"
       d="m 349.53362,425.54684 v 12.65671 h 12.65671 v -12.65671 z"
       id="path10206" />
    <path
       style="fill:#42273b;fill-opacity:1;stroke-width:0.700419"
       d="m 250.98672,236.7489 c -4.34244,-6.16017 -9.51084,-14.36312 -31.35559,-49.76536 l -15.23079,-24.68355 12.89434,-16.6412 12.89434,-16.64119 0.0192,-19.77503 0.0192,-19.77502 -17.74749,-0.18686 -17.74749,-0.186846 17.57238,-22.929915 17.57239,-22.929902 24.68979,-0.0093 24.68977,-0.0093 0.0216,42.900678 0.0216,42.900695 12.87731,16.64782 12.8773,16.64781 -15.76432,25.66802 c -26.14135,42.56402 -33.17297,53.79357 -33.82654,54.02094 -0.343,0.11932 -2.35879,-2.24461 -4.47959,-5.25315 z"
       id="path11868" />
    <path
       style="fill:#42273b;fill-opacity:1;stroke-width:0.700419"
       d="m 346.38193,206.29214 c -3.56484,-3.8113 -20.37949,-25.92665 -20.46599,-26.91779 -0.044,-0.5031 20.40743,-31.37326 45.44741,-68.60038 l 45.52726,-67.685643 34.81467,0.242878 c 24.23514,0.169061 35.05048,0.478697 35.59066,1.018882 0.81801,0.818011 -0.32121,2.180935 -92.25,110.367833 -24.77719,29.15918 -45.37246,53.21631 -45.76722,53.4603 -0.39478,0.24399 -1.69833,-0.60475 -2.89679,-1.88608 z"
       id="path11944" />
    <path
       style="fill:#42273b;fill-opacity:1;stroke-width:0.700419"
       d="M 151.02678,197.50271 C 136.15905,180.19743 97.798535,135.07063 60.06329,90.494524 41.801055,68.921626 25.458416,49.6163 23.746285,47.593832 l -3.112956,-3.677178 h 36.46052 36.460547 l 45.304884,67.395316 c 24.91768,37.06741 45.42527,67.71952 45.57245,68.11578 0.29588,0.79679 -21.34124,29.17248 -22.55118,29.5744 -0.41681,0.13851 -5.30103,-5.0363 -10.85377,-11.49944 z"
       id="path11983" />
    <path
       style="fill:#42273b;fill-opacity:1;stroke-width:0.700419"
       d="m 211.76661,291.51769 c -21.10342,-36.56693 -33.95424,-59.51827 -33.62906,-60.06096 0.67431,-1.12545 21.19064,-27.89198 22.3164,-29.11499 0.67801,-0.7366 5.08819,5.97495 22.09198,33.62012 25.97761,42.23501 31.17906,50.29986 32.44103,50.29986 0.54442,0 12.45536,-18.65246 26.72427,-41.85004 14.15815,-23.01755 25.86913,-41.99094 26.02436,-42.16313 0.51109,-0.56685 3.49271,2.94855 13.87152,16.35481 6.90444,8.91844 10.11034,13.60441 9.82181,14.35631 -0.23566,0.61391 -15.56801,27.35669 -34.07204,59.42843 l -33.64374,58.31219 h -8.89558 -8.89563 z"
       id="path12022" />
    <path
       style="fill:#42273b;fill-opacity:1;stroke-width:0.700419"
       d="m 246.48706,393.48629 c -4.51187,-4.20432 -15.13752,-14.43124 -23.61259,-22.7265 l -15.40922,-15.08232 17.94648,-0.0371 17.94645,-0.0371 5.35236,9.10546 c 2.9438,5.00798 5.65865,9.10546 6.03299,9.10546 0.37438,0 3.08922,-4.09748 6.03302,-9.10546 l 5.35235,-9.10546 17.94647,0.0332 17.94648,0.0332 -23.11384,22.70968 c -12.71262,12.49032 -23.36218,22.71901 -23.66571,22.7304 -0.30353,0.0119 -4.24338,-3.41918 -8.75524,-7.62348 z"
       id="path12061" />
    <path
       style="fill:#42273b;fill-opacity:1;stroke-width:0.700419"
       d="m 135.67226,444.55648 v -30.11802 h 4.90295 4.90293 v 12.60755 12.60755 h 8.05483 8.05481 v -12.60755 -12.60755 h 4.55271 4.55275 v 30.11802 30.11803 h -4.55275 -4.55271 v -12.60753 -12.60755 h -8.05481 -8.05483 v 12.60755 12.60753 h -4.90293 -4.90295 z"
       id="path12100" />
    <path
       style="fill:#42273b;fill-opacity:1;stroke-width:0.700419"
       d="m 212.01796,444.55648 v -30.11802 h 4.54109 4.5411 l 0.18686,18.38599 c 0.18661,18.37377 0.18782,18.38615 1.73575,18.60632 1.35885,0.19333 2.22986,-1.13929 7.09546,-10.85527 l 5.54646,-11.07555 5.5016,11.03037 c 4.67556,9.37421 5.73979,11.03035 7.08802,11.03035 h 1.58643 v -18.56109 -18.56112 h 4.90292 4.90295 v 30.11802 30.11803 h -5.09278 -5.09278 l -6.6245,-13.30797 c -3.64349,-7.31938 -6.86597,-13.30796 -7.16108,-13.30796 -0.29509,0 -3.53398,5.98858 -7.19753,13.30796 l -6.66098,13.30797 h -4.89944 -4.89943 z"
       id="path12139" />
    <path
       style="fill:#42273b;fill-opacity:1;stroke-width:0.700419"
       d="m 300.27078,444.55648 v -30.11802 h 17.51051 17.51047 v 4.90294 4.90292 h -12.60755 -12.60755 v 7.70461 7.70463 h 6.30378 6.30377 v 4.90292 4.90295 h -6.30377 -6.30378 v 7.7046 7.7046 h 12.60755 12.60755 v 4.90295 4.90293 h -17.51047 -17.51051 z"
       id="path12178" />
    <path
       style="fill:#42273b;fill-opacity:1;stroke-width:0.700419"
       d="m 338.79386,444.55648 v -30.11802 h 17.16027 17.16029 v 11.39641 11.39641 l -6.30378,6.27458 c -3.46708,3.45102 -6.30377,6.67883 -6.30377,7.17293 0,0.49411 2.52149,5.93397 5.60333,12.0886 3.08186,6.15463 5.60337,11.35154 5.60337,11.54868 0,0.1972 -1.89229,0.35844 -4.20509,0.35844 h -4.20508 l -6.11681,-12.25733 c -5.22182,-10.46388 -6.34877,-12.25733 -7.70205,-12.25733 h -1.58522 v 12.25733 12.25733 h -4.55272 -4.55274 z m 25.2151,-12.60755 v -7.70461 h -8.05483 -8.05481 v 7.70461 7.70463 h 8.05481 8.05483 z"
       id="path12217" />
    <path
       style="fill:#42273b;fill-opacity:1;stroke-width:0.700419"
       d="m 262.44816,444.55648 v -30.11802 h 4.90292 4.90295 v 12.25734 c 0,11.79787 0.0527,12.25732 1.4034,12.25732 1.11779,0 2.64833,-2.49464 7.52024,-12.25732 l 6.1168,-12.25734 h 4.67716 4.67719 l -6.05979,18.20908 -6.05978,18.20909 5.76953,11.56418 c 3.17321,6.36032 5.7695,11.71934 5.7695,11.90895 0,0.18974 -1.9741,0.34475 -4.38691,0.34475 h -4.3869 l -6.1168,-12.25733 c -4.87191,-9.76267 -6.40245,-12.25733 -7.52024,-12.25733 -1.35081,0 -1.4034,0.45945 -1.4034,12.25733 v 12.25733 h -4.90295 -4.90292 z"
       id="path12256" />
    <path
       style="fill:#42273b;fill-opacity:1;stroke-width:0.700419"
       d="m 174.19533,444.55648 v -30.11802 h 17.16026 17.16027 v 30.11802 30.11803 h -4.55272 -4.55271 v -12.60753 -12.60755 h -8.05484 -8.0548 v 12.60755 12.60753 h -4.55275 -4.55271 z m 25.2151,-12.60755 v -7.70461 h -8.05484 -8.0548 v 7.70461 7.70463 h 8.0548 8.05484 z"
       id="path12295" />
    <path
       style="fill:#42273b;fill-opacity:1;stroke-width:0.700419"
       d="m 351.69784,315.7024 c -2.13089,-0.86221 -5.27561,-4.20937 -11.28129,-12.00744 -2.93414,-3.80981 -5.52393,-6.92483 -5.7551,-6.92226 -0.2311,0.003 -2.62664,2.8594 -5.32325,6.34846 -4.0167,5.1971 -4.94557,6.0659 -5.13879,4.80649 -0.61351,-3.99897 1.63972,-8.59283 8.12987,-16.57517 l 2.40996,-2.96405 8.26484,10.78346 c 10.00793,13.05771 11.94613,15.86523 11.4769,16.62444 -0.43072,0.69693 -0.86473,0.68228 -2.78314,-0.094 z"
       id="path12334" />
    <path
       style="fill:#daf7dc;fill-opacity:1;stroke-width:0.700419"
       d="m 313.31281,315.50423 c 0.45701,-0.77374 4.50732,-6.06105 6.00939,-7.8447 0.30819,-0.36597 0.56033,1.44636 0.56033,4.02741 v 4.69281 h -3.54344 c -2.64358,0 -3.4121,-0.22244 -3.02628,-0.87552 z"
       id="path12486" />
    <path
       style="fill:#daf7dc;fill-opacity:1;stroke-width:0.700419"
       d="m 189.62011,311.65192 0.0144,-4.72783 1.36917,1.75106 c 0.75304,0.96306 2.34156,3.09058 3.53005,4.72783 l 2.16087,2.97677 h -3.54562 -3.54562 z"
       id="path12562" />
    <path
       style="fill:#42273b;fill-opacity:1;stroke-width:0.700419"
       d="m 253.18793,363.56678 c -0.92345,-1.49072 -2.39527,-3.89237 -3.27071,-5.33699 l -1.59171,-2.62656 h 6.39045 6.39041 l -1.92379,3.327 c -1.05811,1.82985 -2.46198,4.23149 -3.11971,5.33697 l -1.1959,2.01 z"
       id="path12601" />
    <path
       style="fill:#42273b;fill-opacity:1;stroke-width:0.700419"
       d="m 155.0089,315.80087 c -0.47266,-0.76481 2.46681,-5.00412 12.35769,-17.8223 l 7.44311,-9.64592 4.28646,5.63091 c 4.9746,6.53493 6.46588,9.6952 6.16894,13.07314 l -0.2133,2.42634 -4.90293,-6.34282 c -2.69661,-3.48853 -5.08506,-6.34493 -5.30767,-6.34752 -0.22268,-0.003 -2.80349,3.06839 -5.73531,6.8244 -7.78447,9.97276 -12.79503,14.3104 -14.09702,12.20377 z"
       id="path17786" />
  </g>
</svg>
